<svg xmlns="http://www.w3.org/2000/svg" viewBox="0 0 512 512" fill="#f2f2f2"><path d="M433.3 135.7c-2.3-3.2-6.1-5.1-10.1-5.1H142.6c-.5 0-1.1 0-1.6.1l-11.5-33.3c-1.2-3.4-3.8-6.2-7.2-7.5L64 67c-6.4-2.5-13.7.6-16.2 7s.6 13.7 7 16.2l52.9 20.8 64.7 186.5c-2.9 1-5.3 3.2-6.4 6.3l-18.7 52c-1.1 3.2-.7 6.7 1.3 9.5 1.9 2.8 5.1 4.4 8.5 4.4h9.6c-6 6.6-9.6 15.4-9.6 24.9 0 20.6 16.8 37.4 37.4 37.4s37.4-16.8 37.4-37.4c0-9.6-3.7-18.3-9.6-24.9H304c-6 6.6-9.6 15.4-9.6 24.9 0 20.6 16.8 37.4 37.4 37.4 20.6 0 37.4-16.8 37.4-37.4 0-9.6-3.7-18.3-9.6-24.9h11.7c5.7 0 10.4-4.7 10.4-10.4s-4.7-10.4-10.4-10.4H172l11.6-32.2c1.5.6 3.1 1 4.8 1h182.9c5.4 0 10.2-3.5 11.9-8.7l52-162.1c1.1-3.8.5-8-1.9-11.2zM194.6 411.2c-9.2 0-16.6-7.5-16.6-16.6s7.5-16.6 16.6-16.6c9.2 0 16.6 7.5 16.6 16.6s-7.4 16.6-16.6 16.6zm137.2 0c-9.2 0-16.6-7.5-16.6-16.6s7.5-16.6 16.6-16.6c9.2 0 16.6 7.5 16.6 16.6s-7.4 16.6-16.6 16.6zm65.4-227.6h-63.6v-28.1h72.6l-9 28.1zm-18.4 57.2h-45.3v-32.2h55.6l-10.3 32.2zm-127.7 0v-32.2h57.5v32.2h-57.5zm57.5 24.9v27h-57.5v-27h57.5zM168 208.5h58.1v32.2h-46.9L168 208.5zm83.1-24.9v-28.1h57.5v28.1h-57.5zm-25-28.1v28.1h-66.8l-9.7-28.1h76.5zm-38.2 110.2h38.3v27h-28.9l-9.4-27zm145.6 27v-27h37.3l-8.7 27h-28.6z"/></svg>