<?xml version="1.0" encoding="utf-8"?>
<!-- Generator: Adobe Illustrator 21.1.0, SVG Export Plug-In . SVG Version: 6.00 Build 0)  -->
<svg version="1.1" id="Layer_1" xmlns="http://www.w3.org/2000/svg" xmlns:xlink="http://www.w3.org/1999/xlink" x="0px" y="0px"
	 viewBox="0 0 406 384" style="enable-background:new 0 0 406 384;" xml:space="preserve">
<g>
	<path style="fill:#FFFFFF;" d="M45.2,331c18.5-4.3,35.2-8.2,51.9-12.1c36.1-8.4,72.3-16.8,108.4-25.1c3-0.7,4.2-2.1,4.8-5.2
		c9.1-45.2,18.4-90.3,27.7-135.4c0.3-1.6,1.3-3.9,2.4-4.2c12-3.1,24.1-5.8,37.2-8.8c-9.7,48.1-19.2,95.3-29,143.4
		c8.2-1.9,15.5-3.5,22.9-5.2c5.8-1.3,11.6-3.1,17.5-4c5.1-0.7,6.9-3.2,7.9-8.1c15.6-75.8,31.4-151.5,47.1-227.2c0.7-3.4,2-5,5.5-5.7
		c10.4-2.1,20.8-4.8,31.1-7.2c0.9-0.2,1.9-0.2,3.4-0.4C381,40.8,378,55.2,375,69.6C359,146,343.1,222.4,327.2,298.8
		c-0.7,3.2-2.1,4.4-4.9,5.1c-82.2,18.9-164.3,37.9-246.5,56.8c-1.7,0.4-4.3,0.1-5.3-1C62.1,350.6,54.1,341.3,45.2,331z"/>
	<path style="fill:#FFFFFF;" d="M23.6,293.4c-3.9-10-8-20.3-12.2-31c16.8-3.9,32.8-7.6,48.8-11.3c26.1-6,52.2-12.1,78.3-17.8
		c3.7-0.8,4.8-2.5,5.5-5.8c7-33.9,14-67.8,21.1-101.6c3.5-16.6,7-33.2,10.5-49.8c0.2-1,0.3-2,0.5-3.8C164.4,75,153,77.6,141,80.3
		c2.8-12.9,5.4-25,8.2-37.1c0.2-1,1.5-2.4,2.5-2.6c23.7-5.6,47.5-11.1,72.1-16.8c-2.3,11.1-4.5,21.4-6.6,31.8
		c-14,66.4-27.9,132.8-41.8,199.3c-0.5,2.6-1.2,4.1-4,4.8c-48.6,11.2-97.2,22.6-145.8,33.9C25.2,293.5,24.8,293.4,23.6,293.4z"/>
</g>
</svg>
