<svg xmlns="http://www.w3.org/2000/svg" viewBox="0 0 406 384"><g fill="#fff"><path d="M45.2 331c18.5-4.3 35.2-8.2 51.9-12.1 36.1-8.4 72.3-16.8 108.4-25.1 3-.7 4.2-2.1 4.8-5.2 9.1-45.2 18.4-90.3 27.7-135.4.3-1.6 1.3-3.9 2.4-4.2 12-3.1 24.1-5.8 37.2-8.8-9.7 48.1-19.2 95.3-29 143.4 8.2-1.9 15.5-3.5 22.9-5.2 5.8-1.3 11.6-3.1 17.5-4 5.1-.7 6.9-3.2 7.9-8.1 15.6-75.8 31.4-151.5 47.1-227.2.7-3.4 2-5 5.5-5.7 10.4-2.1 20.8-4.8 31.1-7.2.9-.2 1.9-.2 3.4-.4-3 15-6 29.4-9 43.8-16 76.4-31.9 152.8-47.8 229.2-.7 3.2-2.1 4.4-4.9 5.1-82.2 18.9-164.3 37.9-246.5 56.8-1.7.4-4.3.1-5.3-1-8.4-9.1-16.4-18.4-25.3-28.7z"/><path d="M23.6 293.4c-3.9-10-8-20.3-12.2-31 16.8-3.9 32.8-7.6 48.8-11.3 26.1-6 52.2-12.1 78.3-17.8 3.7-.8 4.8-2.5 5.5-5.8 7-33.9 14-67.8 21.1-101.6l10.5-49.8c.2-1 .3-2 .5-3.8-11.7 2.7-23.1 5.3-35.1 8 2.8-12.9 5.4-25 8.2-37.1.2-1 1.5-2.4 2.5-2.6 23.7-5.6 47.5-11.1 72.1-16.8-2.3 11.1-4.5 21.4-6.6 31.8-14 66.4-27.9 132.8-41.8 199.3-.5 2.6-1.2 4.1-4 4.8-48.6 11.2-97.2 22.6-145.8 33.9-.4-.1-.8-.2-2-.2z"/></g></svg>