<svg version="1.1" id="Layer_1" xmlns="http://www.w3.org/2000/svg" xmlns:xlink="http://www.w3.org/1999/xlink"
	 viewBox="0 0 512 512" fill="#f2f2f2">
	<path d="M433.3,135.7c-2.3-3.2-6.1-5.1-10.1-5.1H142.6c-0.5,0-1.1,0-1.6,0.1l-11.5-33.3
		c-1.2-3.4-3.8-6.2-7.2-7.5L64,67c-6.4-2.5-13.7,0.6-16.2,7c-2.5,6.4,0.6,13.7,7,16.2l52.9,20.8l64.7,186.5c-2.9,1-5.3,3.2-6.4,6.3
		l-18.7,52c-1.1,3.2-0.7,6.7,1.3,9.5c1.9,2.8,5.1,4.4,8.5,4.4h9.6c-6,6.6-9.6,15.4-9.6,24.9c0,20.6,16.8,37.4,37.4,37.4
		s37.4-16.8,37.4-37.4c0-9.6-3.7-18.3-9.6-24.9H304c-6,6.6-9.6,15.4-9.6,24.9c0,20.6,16.8,37.4,37.4,37.4
		c20.6,0,37.4-16.8,37.4-37.4c0-9.6-3.7-18.3-9.6-24.9h11.7c5.7,0,10.4-4.7,10.4-10.4s-4.7-10.4-10.4-10.4H172l11.6-32.2
		c1.5,0.6,3.1,1,4.8,1h182.9c5.4,0,10.2-3.5,11.9-8.7l52-162.1C436.3,143.1,435.7,138.9,433.3,135.7z M194.6,411.2
		c-9.2,0-16.6-7.5-16.6-16.6s7.5-16.6,16.6-16.6c9.2,0,16.6,7.5,16.6,16.6S203.8,411.2,194.6,411.2z M331.8,411.2
		c-9.2,0-16.6-7.5-16.6-16.6s7.5-16.6,16.6-16.6c9.2,0,16.6,7.5,16.6,16.6S341,411.2,331.8,411.2z M397.2,183.6h-63.6v-28.1h72.6
		L397.2,183.6z M378.8,240.8h-45.3v-32.2h55.6L378.8,240.8z M251.1,240.8v-32.2h57.5v32.2H251.1z M308.6,265.7v27h-57.5v-27H308.6z
		 M168,208.5h58.1v32.2h-46.9L168,208.5z M251.1,183.6v-28.1h57.5v28.1H251.1z M226.1,155.5v28.1h-66.8l-9.7-28.1H226.1z
		 M187.9,265.7h38.3v27h-28.9L187.9,265.7z M333.5,292.7v-27h37.3l-8.7,27H333.5z"/>
</svg>
